# xmcd CD database file
#
# Track frame offsets:
#	150
#	18760
#	34242
#	57282
#
# Disc length: 1096 seconds
#
# Revision: 1
# Processed by: cddbd v1.5.2PL0 Copyright (c) Steve Scherf et al.
# Submitted via: CDex 1.60beta1-cs1
#
DISCID=28044604
DTITLE=クボタタケシ ＊ 渡辺俊美 - TIME
DYEAR=1997
DGENRE=Disco
TTITLE0=TIME
TTITLE1=CLAP and SNAP
TTITLE2=UPLIFTING
TTITLE3=TIME AFTER TIME
EXTD=YEAR: 1997
EXTT0=
EXTT1=
EXTT2=
EXTT3=
PLAYORDER=
